<?xml version="1.0" encoding="UTF-8"?>
<svg version="1.1" xmlns="http://www.w3.org/2000/svg" width="2048" height="2048">
<path d="M0 0 C2.3988431 2.12741437 4.73784762 4.29951729 7.0546875 6.515625 C7.725 7.134375 8.3953125 7.753125 9.0859375 8.390625 C18.81307717 17.65456754 26.46090515 28.87639786 33.0546875 40.515625 C33.38178711 41.09054687 33.70888672 41.66546875 34.04589844 42.2578125 C43.7334388 59.57251878 49.8046004 78.82820006 52.0546875 98.515625 C52.14063949 99.26131245 52.22659148 100.00699989 52.31514808 100.77528393 C52.92974123 106.46145975 53.19745432 112.05282553 53.18118733 117.76952797 C53.18271388 118.65001493 53.18424043 119.53050188 53.18581323 120.43767025 C53.18970008 123.3786151 53.18650242 126.31950817 53.18332195 129.26045322 C53.18466907 131.40314962 53.18645323 133.54584579 53.18863419 135.6885415 C53.19336608 141.5913721 53.19186189 147.49418728 53.18935642 153.39701865 C53.18772456 159.81353727 53.19186317 166.23005258 53.19526559 172.64657015 C53.20059987 183.89771102 53.20187094 195.14884811 53.20080948 206.39999008 C53.1996849 218.47225371 53.20071956 230.54451426 53.20438194 242.61677742 C53.2046116 243.37941814 53.20484125 244.14205887 53.20507786 244.92780992 C53.20601951 248.03398276 53.2069752 251.14015559 53.20794905 254.24632842 C53.21809375 286.65105253 53.22115507 319.05577491 53.22174116 351.46050043 C53.22180591 354.94878599 53.22187385 358.43707154 53.22194457 361.9253571 C53.22196158 362.7909991 53.22197858 363.6566411 53.2219961 364.54851468 C53.22240461 383.73382725 53.22459474 402.9191395 53.22710042 422.1044519 C53.22812879 430.00532705 53.22911882 437.9062022 53.23011667 445.80707735 C53.23022725 446.68007787 53.23033784 447.5530784 53.23045178 448.45253348 C53.23677632 498.48353077 53.24090087 548.51452784 53.24044323 598.54552555 C53.24042745 600.4179661 53.24041172 602.29040665 53.24039602 604.1628472 C53.24032264 612.61665907 53.24023447 621.07047093 53.24014214 629.5242828 C53.24010101 633.29400244 53.24006087 637.06372208 53.24002082 640.83344173 C53.24000043 642.72025573 53.23997941 644.60706973 53.23995776 646.49388373 C53.23927779 706.13337619 53.24658996 765.77286272 53.26049805 825.41235352 C53.26399918 840.43375935 53.26746869 855.4551652 53.27076244 870.47657108 C53.27096532 871.4015452 53.27116819 872.32651932 53.27137721 873.27952295 C53.27759467 901.79968546 53.28135827 930.31984748 53.28262043 958.84001064 C53.28268036 960.18366749 53.28268036 960.18366749 53.28274149 961.55446891 C53.28359488 981.22147162 53.28385593 1000.88847429 53.28357112 1020.55547701 C53.28347464 1027.59331391 53.28342259 1034.63115081 53.28339239 1041.6689877 C53.28338447 1043.4197792 53.28337427 1045.1705707 53.28336176 1046.9213622 C53.28318561 1074.79156211 53.28887665 1102.66175693 53.29751558 1130.53195538 C53.30617643 1158.61573235 53.3083475 1186.69950229 53.30175426 1214.78328003 C53.30084205 1218.67000556 53.29999875 1222.5567311 53.29919624 1226.44345665 C53.29895611 1227.58624105 53.29895611 1227.58624105 53.29871113 1228.752112 C53.29636443 1240.78193399 53.30070108 1252.81174375 53.30786743 1264.84156345 C53.31478468 1276.6906447 53.31431743 1288.5397066 53.30667529 1300.38878754 C53.30279654 1306.71886801 53.30201025 1313.04890537 53.31013265 1319.37898279 C53.31747499 1325.15192642 53.31540121 1330.92479151 53.30620878 1336.69773179 C53.30450507 1338.75945111 53.30605725 1340.82117678 53.31150999 1342.88288959 C53.33859011 1353.86892254 53.01824639 1364.7665168 52.17585069 1375.72312158 C52.06194369 1377.23858245 52.06194369 1377.23858245 51.94573553 1378.78465868 C49.96914491 1402.25775654 42.31958344 1424.92252429 31.0546875 1445.515625 C30.49007812 1446.55976562 29.92546875 1447.60390625 29.34375 1448.6796875 C22.52467057 1460.81316686 14.42758397 1471.54232431 4.81640625 1481.578125 C2.9279827 1483.55157705 1.14874873 1485.57449794 -0.58203125 1487.6875 C-25.06242567 1516.98304638 -68.8904446 1534.90580417 -105.9453125 1538.515625 C-123.84374264 1539.27068821 -142.4573626 1539.82141385 -159.9453125 1535.515625 C-160.78658691 1535.31163086 -161.62786133 1535.10763672 -162.49462891 1534.89746094 C-174.5028475 1531.90140277 -185.84441132 1527.98102173 -196.9453125 1522.515625 C-197.64108398 1522.17660156 -198.33685547 1521.83757812 -199.05371094 1521.48828125 C-209.3974238 1516.3934078 -218.80975223 1510.53988136 -227.9453125 1503.515625 C-228.8528125 1502.83242187 -229.7603125 1502.14921875 -230.6953125 1501.4453125 C-247.51059603 1488.2833495 -262.06455851 1471.90349139 -272.9453125 1453.515625 C-272.9453125 1452.855625 -272.9453125 1452.195625 -272.9453125 1451.515625 C-273.70070313 1451.55042969 -274.45609375 1451.58523438 -275.234375 1451.62109375 C-321.54713183 1452.75993203 -364.20252278 1431.81055771 -397.5546875 1400.84765625 C-400.91317858 1397.57148112 -403.97713803 1394.14571631 -406.9453125 1390.515625 C-407.86183594 1389.43087891 -407.86183594 1389.43087891 -408.796875 1388.32421875 C-435.96845003 1355.46934615 -450.76455353 1313.2677893 -448.9453125 1270.515625 C-448.70497461 1268.14953988 -448.36191717 1265.85902627 -447.9453125 1263.515625 C-449.01910156 1263.42023438 -450.09289062 1263.32484375 -451.19921875 1263.2265625 C-487.16007752 1258.66936531 -522.55306952 1237.33569031 -549.9453125 1214.515625 C-550.47624512 1214.07492676 -551.00717773 1213.63422852 -551.55419922 1213.18017578 C-563.49542451 1203.23308459 -574.35809162 1192.80928623 -583.9453125 1180.515625 C-584.44853027 1179.87818359 -584.95174805 1179.24074219 -585.47021484 1178.58398438 C-592.59815476 1169.54325701 -599.18844534 1160.50056471 -604.9453125 1150.515625 C-605.65509778 1149.34305176 -606.36607994 1148.17120236 -607.078125 1147 C-636.21676398 1098.21611364 -643.38026048 1038.79459304 -631.1640625 983.87109375 C-630.96401611 982.97003906 -630.76396973 982.06898438 -630.55786133 981.140625 C-630.15137497 979.39867949 -629.71384891 977.66367119 -629.24487305 975.9375 C-629.03644775 975.14214844 -628.82802246 974.34679688 -628.61328125 973.52734375 C-628.41758545 972.83213623 -628.22188965 972.13692871 -628.02026367 971.4206543 C-627.75275745 969.4107423 -627.75275745 969.4107423 -629.18383789 967.68530273 C-630.33924405 966.55140251 -631.54397446 965.4672072 -632.7734375 964.4140625 C-637.07642029 960.65282215 -640.44977045 956.01534991 -643.9453125 951.515625 C-644.4707666 950.83951172 -644.9962207 950.16339844 -645.53759766 949.46679688 C-653.83121786 938.70571207 -661.1864709 927.69958406 -667.70458984 915.77832031 C-668.88585651 913.62405437 -670.09421381 911.4872839 -671.30859375 909.3515625 C-692.02340391 872.32444834 -701.44256725 829.0810178 -701.2578125 786.890625 C-701.25598969 786.01955109 -701.25416687 785.14847717 -701.25228882 784.25100708 C-701.20286239 770.161576 -700.52923771 756.39735084 -697.9453125 742.515625 C-697.67992676 741.08210693 -697.67992676 741.08210693 -697.40917969 739.61962891 C-688.06345906 690.70390117 -666.23917542 648.05534004 -633.69921875 610.56640625 C-633.25739258 610.04747803 -632.81556641 609.5285498 -632.36035156 608.99389648 C-630.9453125 607.515625 -630.9453125 607.515625 -629.22558594 606.28930664 C-627.24640849 604.79581866 -626.12638407 603.71088636 -624.9453125 601.515625 C-624.67805238 597.37496085 -625.16868929 593.42500368 -625.77578735 589.32803345 C-626.27307492 585.95131125 -626.65709632 582.56107326 -627.05859375 579.171875 C-627.1406456 578.50468948 -627.22269745 577.83750397 -627.30723572 577.15010071 C-632.85896175 531.22076265 -616.7424199 481.02883695 -588.9453125 444.578125 C-584.03220553 438.43476973 -578.76418297 432.6393505 -573.32666016 426.95996094 C-572.10023211 425.67760882 -570.88701763 424.38264839 -569.67578125 423.0859375 C-556.32360926 409.16400677 -539.78257483 398.41862088 -522.8203125 389.453125 C-521.91917725 388.97552734 -521.01804199 388.49792969 -520.08959961 388.00585938 C-519.23503174 387.56435547 -518.38046387 387.12285156 -517.5 386.66796875 C-516.74187012 386.27601318 -515.98374023 385.88405762 -515.20263672 385.48022461 C-512.7947954 384.45130604 -510.52302148 383.94088733 -507.9453125 383.515625 C-508.03619141 382.94569824 -508.12707031 382.37577148 -508.22070312 381.78857422 C-517.45039444 321.97307472 -504.3482646 260.47123645 -468.51171875 211.28393555 C-455.57182557 193.91801073 -441.10238398 177.80871012 -423.9453125 164.515625 C-422.95273437 163.71769531 -421.96015625 162.91976562 -420.9375 162.09765625 C-412.69781348 155.52537288 -404.01351977 149.87505607 -394.9453125 144.515625 C-394.23213867 144.09249023 -393.51896484 143.66935547 -392.78417969 143.23339844 C-368.93706877 129.21006393 -343.97533821 120.9098609 -316.9453125 115.515625 C-315.98496094 115.32291016 -315.02460937 115.13019531 -314.03515625 114.93164062 C-311.6721873 114.4580498 -309.30891568 113.98603843 -306.9453125 113.515625 C-306.69007813 112.56647217 -306.69007813 112.56647217 -306.4296875 111.59814453 C-302.63715055 97.65603228 -298.36633136 84.46663936 -291.9453125 71.515625 C-291.57035645 70.74412109 -291.19540039 69.97261719 -290.80908203 69.17773438 C-278.0696786 43.13650488 -259.85432796 20.34353832 -236.9453125 2.515625 C-236.14577148 1.88551514 -236.14577148 1.88551514 -235.33007812 1.24267578 C-167.34521536 -51.99634132 -67.15464076 -56.64502855 0 0 Z M-180.9453125 25.515625 C-182.5540625 26.29679687 -182.5540625 26.29679687 -184.1953125 27.09375 C-217.78539798 44.05345002 -243.48985671 76.01168214 -255.3046875 111.48193359 C-257.17492918 117.41909564 -258.62201815 123.43614224 -259.9453125 129.515625 C-260.26822266 130.96775391 -260.26822266 130.96775391 -260.59765625 132.44921875 C-267.11771227 166.00133187 -260.78872 202.8749519 -241.9453125 231.515625 C-231.55790219 246.54959163 -219.20851168 257.50741844 -202.9453125 265.828125 C-202.04039062 266.29798828 -202.04039062 266.29798828 -201.1171875 266.77734375 C-189.77589433 272.35268535 -177.99842776 274.2899952 -165.5703125 275.515625 C-133.22366763 278.72182324 -103.82762641 291.39397935 -82.66748047 317.06591797 C-75.72697932 325.86318069 -70.58570467 335.34946521 -65.9453125 345.515625 C-65.53539062 346.38574219 -65.12546875 347.25585938 -64.703125 348.15234375 C-59.44097747 360.16554102 -56.79470045 374.33153013 -56.79814148 387.37107849 C-56.79446479 388.13191728 -56.7907881 388.89275607 -56.787 389.67665058 C-56.77604081 392.21079165 -56.77213244 394.7448916 -56.76831055 397.27905273 C-56.76203946 399.1031914 -56.7553921 400.92732881 -56.74839783 402.75146484 C-56.72741175 408.73404054 -56.71699271 414.71661629 -56.70703125 420.69921875 C-56.70298007 422.76869278 -56.69886304 424.83816669 -56.69468117 426.90764046 C-56.67563249 436.64451998 -56.66140717 446.38139199 -56.6530692 456.11828655 C-56.64333207 467.30081637 -56.61710384 478.4831464 -56.57656831 489.66560596 C-56.54621443 498.34206049 -56.53158178 507.01845843 -56.52828819 515.69496495 C-56.52595737 520.86007737 -56.51725918 526.02497635 -56.49182701 531.19003105 C-56.29549394 573.2658887 -56.29549394 573.2658887 -60.9453125 592.515625 C-61.16922857 593.44576857 -61.39314465 594.37591213 -61.62384605 595.33424187 C-72.99098922 641.61058835 -103.40657968 680.76258312 -143.8046875 705.53515625 C-165.88269102 718.72342685 -189.46354608 727.02383893 -214.9453125 730.515625 C-215.58854619 730.60457409 -216.23177988 730.69352318 -216.8945055 730.78516769 C-225.57322777 731.80837736 -234.28444347 731.67155594 -243.00854492 731.67675781 C-244.82802428 731.68139356 -246.64750268 731.68641923 -248.46697998 731.69180298 C-253.38665921 731.70485477 -258.30632485 731.71135757 -263.22601867 731.71581364 C-266.30669506 731.71875565 -269.38736782 731.72286249 -272.46804237 731.72731781 C-282.12747465 731.74097278 -291.78689853 731.7506496 -301.44633979 731.7545197 C-312.55871263 731.75899777 -323.6709623 731.77654252 -334.78329772 731.8055203 C-343.39937626 731.82720113 -352.01542031 731.83722736 -360.63152581 731.83856082 C-365.76552446 731.83960412 -370.89940701 731.84541043 -376.03337669 731.86338043 C-380.86716602 731.87997263 -385.70075334 731.88196305 -390.53456116 731.87324142 C-392.29724993 731.87247702 -394.05995009 731.87673385 -395.82261086 731.88669968 C-421.90175214 732.02536825 -446.64161815 725.00813061 -465.796875 706.55859375 C-467.92536676 704.46238907 -467.92536676 704.46238907 -470.390625 702.640625 C-486.9751978 688.84550634 -496.99615628 665.073423 -499.66015625 644.09765625 C-502.07635524 613.74622509 -494.74560967 587.04702742 -474.9453125 563.515625 C-474.1821875 562.505 -473.4190625 561.494375 -472.6328125 560.453125 C-457.02685516 543.39545069 -433.4604723 531.41420773 -410.26074219 530.07885742 C-408.17164377 529.99792266 -406.08204141 529.92934552 -403.9921875 529.87109375 C-402.83751984 529.83430511 -401.68285217 529.79751648 -400.49319458 529.75961304 C-386.44616677 529.36778472 -372.40009031 529.4238691 -358.35009766 529.59277344 C-354.52795602 529.63733476 -350.70622992 529.65248246 -346.88386345 529.66200447 C-343.88772759 529.67489601 -340.89212172 529.70959296 -337.89624405 529.75011826 C-336.48587631 529.7654421 -335.07539387 529.77271795 -333.6649437 529.77121353 C-325.27999452 529.77043949 -318.7242148 530.24771475 -311.9453125 535.515625 C-306.94534008 540.64717564 -304.33725884 546.59616161 -303.6328125 553.640625 C-304.14714433 560.01833967 -306.24309233 565.39935128 -310.2578125 570.390625 C-316.85212857 575.60473538 -322.48336697 577.66328612 -330.88232422 577.6574707 C-331.69093399 577.66094513 -332.49954376 577.66441956 -333.33265686 577.66799927 C-335.09070015 577.67535405 -336.8487527 577.68070092 -338.60680771 577.68428993 C-341.39990436 577.69147027 -344.19282684 577.70715255 -346.98587036 577.72563171 C-354.92838013 577.77799903 -362.87079821 577.82598108 -370.81347656 577.84155273 C-375.67360409 577.85170489 -380.53329805 577.88121872 -385.39325333 577.92287254 C-387.23575669 577.93509352 -389.07832158 577.94032028 -390.92086411 577.93807411 C-408.10231455 577.92229608 -423.63418471 580.57731144 -436.7578125 592.765625 C-447.13369431 604.12848094 -452.34758646 618.12549927 -452.16015625 633.453125 C-451.11493828 648.35223211 -445.32804446 659.09671627 -434.9453125 669.515625 C-434.39101563 670.093125 -433.83671875 670.670625 -433.265625 671.265625 C-420.83769659 683.137079 -404.32775915 683.81840781 -388.21484375 683.77441406 C-386.53816069 683.77712856 -384.86147883 683.78069206 -383.18479919 683.78503418 C-378.65330553 683.79411152 -374.12190349 683.7906317 -369.59040833 683.78427601 C-364.82491828 683.77918513 -360.05943569 683.78391662 -355.29394531 683.78704834 C-347.28465378 683.79068185 -339.27539919 683.78590801 -331.26611328 683.77636719 C-322.04926035 683.7655136 -312.83249614 683.76898814 -303.61564541 683.78002 C-295.66872374 683.78914613 -287.72182853 683.79035141 -279.7749033 683.78514266 C-275.04381932 683.78204822 -270.31277676 683.78154257 -265.58169556 683.78821564 C-261.12301123 683.79406535 -256.6644391 683.78985543 -252.20576668 683.77842712 C-250.58463793 683.77581945 -248.96349947 683.77647736 -247.3423748 683.78095245 C-232.92972338 683.81701701 -218.19596885 683.241052 -204.2578125 679.265625 C-203.47365967 679.04874023 -202.68950684 678.83185547 -201.8815918 678.60839844 C-170.20858634 669.56723598 -142.53235161 649.53131112 -124.9453125 621.515625 C-124.55118164 620.89075195 -124.15705078 620.26587891 -123.75097656 619.62207031 C-112.60163572 601.63663728 -105.80646418 580.89739098 -105.79141235 559.6063385 C-105.78483897 558.45661353 -105.78483897 558.45661353 -105.7781328 557.28366178 C-105.76484341 554.73085324 -105.75858826 552.17807913 -105.75244141 549.62524414 C-105.74453252 547.78812508 -105.73626309 545.95100755 -105.72766113 544.1138916 C-105.70152751 538.09286973 -105.6861401 532.07184121 -105.671875 526.05078125 C-105.66651138 523.97122125 -105.66113386 521.89166129 -105.65574265 519.81210136 C-105.63412482 511.15543373 -105.61539186 502.49876789 -105.60412025 493.84208012 C-105.58790397 481.47285971 -105.55476977 469.10395449 -105.49771941 456.73485285 C-105.45889662 448.01776102 -105.43947289 439.30075305 -105.43419969 430.5835771 C-105.43056256 425.38736718 -105.41871686 420.19149411 -105.38609695 414.99537849 C-105.35579917 410.09915373 -105.34978111 405.20346582 -105.36148071 400.30716705 C-105.36169966 398.52231013 -105.3535454 396.73742669 -105.33582687 394.9526577 C-105.17112067 377.3884058 -108.74792243 359.61496675 -121.15234375 346.25390625 C-127.56585157 340.03601741 -134.16687985 335.09450703 -142.1328125 331.078125 C-142.78556152 330.74820557 -143.43831055 330.41828613 -144.11083984 330.07836914 C-152.91803979 325.83880964 -161.63033466 325.06777905 -171.2578125 324.203125 C-182.90520377 323.04609437 -193.82665148 321.1668365 -204.9453125 317.515625 C-205.64011719 317.29003906 -206.33492187 317.06445312 -207.05078125 316.83203125 C-228.23229707 309.79801943 -245.84232426 297.88532598 -261.9453125 282.515625 C-262.58082031 281.94328125 -263.21632813 281.3709375 -263.87109375 280.78125 C-291.75384335 254.68807646 -308.85629338 212.19402898 -310.5703125 174.390625 C-310.60382813 173.10929688 -310.63734375 171.82796875 -310.671875 170.5078125 C-310.63411045 167.40027862 -310.63411045 167.40027862 -312.9453125 165.515625 C-315.84977447 166.02998889 -318.55185779 166.65988769 -321.3828125 167.453125 C-322.23391602 167.68765381 -323.08501953 167.92218262 -323.96191406 168.16381836 C-372.93625341 182.02184274 -413.98808116 213.35740047 -439.32421875 257.609375 C-446.95097816 271.33082514 -452.36801832 285.4400818 -456.2578125 300.640625 C-456.50039795 301.58107666 -456.7429834 302.52152832 -456.99291992 303.49047852 C-460.27659198 317.01865025 -461.26619497 330.37737521 -461.15112305 344.23681641 C-461.13259975 346.54210275 -461.13061625 348.84698983 -461.13085938 351.15234375 C-461.12595063 352.64844092 -461.12012514 354.14453543 -461.11328125 355.640625 C-461.11161201 356.65177368 -461.11161201 356.65177368 -461.10990906 357.68334961 C-461.42496132 365.57062653 -461.42496132 365.57062653 -458.9453125 372.515625 C-457.02882518 372.62010722 -455.10845404 372.65362206 -453.18913269 372.66038513 C-451.93770981 372.66728363 -450.68628693 372.67418213 -449.39694214 372.68128967 C-447.99664321 372.6840049 -446.59634413 372.68664201 -445.19604492 372.68920898 C-443.73082786 372.69551152 -442.26561273 372.70227698 -440.80039978 372.70947266 C-437.63397305 372.72417975 -434.4675539 372.7358905 -431.30110741 372.74542046 C-426.27576122 372.76087787 -421.250478 372.7848363 -416.22517395 372.81031799 C-401.93034873 372.88147713 -387.63548503 372.94089958 -373.34057617 372.99243164 C-365.45348328 373.02093998 -357.56645064 373.05644476 -349.67942125 373.09908539 C-345.51265518 373.12126638 -341.34594403 373.13986632 -337.17912865 373.14953423 C-287.90342984 373.26845822 -246.78752288 380.60089595 -209.74609375 415.6875 C-182.13991348 443.56319667 -168.60495168 480.00312954 -166.8828125 518.890625 C-166.82061523 520.08381348 -166.75841797 521.27700195 -166.69433594 522.50634766 C-166.4479255 531.35098913 -167.71540469 539.14574973 -173.0703125 546.390625 C-179.71264235 551.30017315 -185.77676269 554.42967287 -194.203125 554 C-200.25431694 552.93112849 -205.74201414 550.23876527 -209.8828125 545.640625 C-213.57380522 540.04821179 -215.29481349 535.19546372 -215.5 528.5 C-215.55400899 527.16215653 -215.608892 525.82434812 -215.66455078 524.48657227 C-215.68906311 523.79701447 -215.71357544 523.10745667 -215.73883057 522.39700317 C-216.7057727 497.10404233 -222.56704743 475.29315264 -238.9453125 455.515625 C-239.42226563 454.87625 -239.89921875 454.236875 -240.390625 453.578125 C-249.2188366 442.15959982 -263.50226875 434.12285595 -276.6328125 428.828125 C-277.32656982 428.54235596 -278.02032715 428.25658691 -278.73510742 427.9621582 C-291.28081103 423.12117613 -303.95099299 422.06842133 -317.26538086 422.12744141 C-318.83767559 422.12336341 -320.40996746 422.11801472 -321.98225403 422.11151123 C-326.20551904 422.09797646 -330.42856119 422.10307855 -334.65182948 422.11264849 C-339.10192195 422.12031902 -343.55199712 422.11317906 -348.00209045 422.10848999 C-355.47204971 422.10305317 -362.94191959 422.11016867 -370.41186523 422.12451172 C-379.00804024 422.14082822 -387.60400159 422.13554858 -396.20017141 422.1190325 C-403.62233696 422.10535099 -411.04443877 422.1035305 -418.46661288 422.11134851 C-422.88123445 422.1159894 -427.29575614 422.11675014 -431.71037102 422.10673904 C-435.86466618 422.09797406 -440.01869013 422.10426207 -444.17295647 422.12142181 C-445.68366041 422.12533668 -447.19438781 422.12434034 -448.70508194 422.11763382 C-481.63513416 421.98509781 -510.36791089 434.9157276 -533.9453125 457.515625 C-534.75355469 458.26070312 -535.56179688 459.00578125 -536.39453125 459.7734375 C-562.57946377 484.68406404 -577.08103041 521.12101633 -578.1484375 556.91796875 C-578.35195732 571.68372835 -576.96522483 585.73957275 -573.6953125 600.140625 C-572.22573764 607.21451076 -572.99096069 614.13285391 -576.5390625 620.46875 C-580.67916352 626.49489704 -585.95703922 631.57490796 -591.20166016 636.62915039 C-599.05017398 644.24290155 -605.55190897 652.66273953 -611.9453125 661.515625 C-612.60611816 662.41740479 -612.60611816 662.41740479 -613.28027344 663.33740234 C-634.81199933 692.96243504 -646.46763533 727.45986194 -650.9453125 763.515625 C-651.07808594 764.53140625 -651.21085937 765.5471875 -651.34765625 766.59375 C-656.95434951 819.12769778 -641.53760133 877.33075614 -608.1953125 918.703125 C-606.79394528 920.32067409 -605.37788978 921.92565096 -603.9453125 923.515625 C-603.24277344 924.32515625 -602.54023437 925.1346875 -601.81640625 925.96875 C-575.22080095 956.22779289 -540.59097608 977.75928563 -499.9453125 982.515625 C-495.09247147 982.77889005 -490.25273896 982.7965144 -485.39355469 982.78686523 C-483.98753563 982.7912655 -482.58151917 982.79657231 -481.17550659 982.80270386 C-478.17622034 982.81409915 -475.17700374 982.81965542 -472.17769623 982.82058525 C-467.42742131 982.82254496 -462.67728852 982.84069803 -457.92706299 982.86134338 C-446.13757238 982.91025994 -434.3480439 982.94142193 -422.55847168 982.96264648 C-413.37362535 982.97919937 -404.1889033 983.00206411 -395.00414014 983.04566723 C-390.2890658 983.06734718 -385.57422821 983.07551077 -380.85910749 983.07327449 C-377.92176066 983.07494863 -374.98456703 983.08904071 -372.04727554 983.10648727 C-370.05123729 983.11469521 -368.05515519 983.10818196 -366.05911255 983.10112 C-356.60396477 983.17680858 -348.550163 984.08743671 -341.44921875 990.79296875 C-336.49418737 996.46873197 -334.65495107 1003.03591469 -334.9453125 1010.515625 C-336.16805794 1017.13792776 -339.16450154 1023.72037375 -344.68359375 1027.80078125 C-349.84217369 1030.88267376 -353.91331129 1031.6392422 -359.82774353 1031.65606689 C-361.63316872 1031.66463211 -361.63316872 1031.66463211 -363.47506714 1031.67337036 C-364.79290192 1031.67448822 -366.11073669 1031.67560608 -367.46850586 1031.67675781 C-368.87342966 1031.68138869 -370.27835222 1031.68641371 -371.68327332 1031.69180298 C-375.50250602 1031.70491939 -379.32172114 1031.71137265 -383.14097285 1031.71581364 C-385.53587944 1031.71875089 -387.9307813 1031.72285733 -390.3256855 1031.72731781 C-397.84299952 1031.74100239 -405.36030265 1031.75065941 -412.87762827 1031.7545197 C-421.50703491 1031.7589767 -430.13628127 1031.77640973 -438.76563925 1031.8055203 C-445.46153732 1031.82730912 -452.15739093 1031.83723335 -458.853324 1031.83856082 C-462.8384913 1031.8395984 -466.8235082 1031.84527601 -470.80863762 1031.86338043 C-509.27695114 1032.02797562 -542.44718697 1025.6000832 -576.72973633 1007.66308594 C-579.45420384 1006.25206695 -582.19888408 1004.88331641 -584.9453125 1003.515625 C-586.73613944 1013.91849545 -587.3473998 1023.98468381 -587.3203125 1034.515625 C-587.32010101 1035.27986786 -587.31988953 1036.04411072 -587.31967163 1036.83151245 C-587.28412886 1049.7591415 -586.10493305 1061.94464496 -582.9453125 1074.515625 C-582.76339355 1075.29067383 -582.58147461 1076.06572266 -582.39404297 1076.86425781 C-575.02105046 1108.10887844 -558.58394163 1136.04298601 -536.9453125 1159.515625 C-536.41212402 1160.0940918 -535.87893555 1160.67255859 -535.32958984 1161.26855469 C-504.5622393 1194.20697012 -464.9364282 1211.16318758 -421.08984375 1218.49609375 C-413.1692745 1219.92762368 -407.17405984 1223.26121893 -402.4453125 1229.890625 C-398.40509571 1236.81507587 -397.79637857 1241.85075114 -398.390625 1249.74609375 C-401.21786539 1290.62023075 -396.6367463 1326.33826659 -369.38671875 1358.5390625 C-359.41627366 1369.94405135 -348.18958636 1379.11394995 -334.9453125 1386.515625 C-333.89214844 1387.12148437 -332.83898437 1387.72734375 -331.75390625 1388.3515625 C-324.87318884 1392.07218655 -317.99958811 1394.63986612 -310.5078125 1396.828125 C-309.68667969 1397.07062988 -308.86554688 1397.31313477 -308.01953125 1397.56298828 C-294.58439816 1401.26445116 -280.98594829 1401.86982595 -267.12036133 1401.82104492 C-257.44724725 1401.80811452 -249.59642945 1402.46212583 -242.15844727 1409.11352539 C-238.41902997 1413.17384758 -235.98690194 1417.84354336 -233.5703125 1422.765625 C-219.13926248 1450.92043967 -193.5763129 1473.07662748 -163.4765625 1483.05078125 C-159.33165307 1484.34817903 -155.15817529 1485.46026426 -150.9453125 1486.515625 C-150.03007813 1486.75023437 -149.11484375 1486.98484375 -148.171875 1487.2265625 C-117.14942449 1493.97908327 -83.09926705 1487.02939539 -56.5078125 1470.078125 C-25.77855001 1449.7094865 -6.1924342 1419.99326585 1.59570086 1384.01644647 C3.25191274 1375.18767122 3.34096992 1366.51972623 3.32211304 1357.57949829 C3.32585562 1355.88540107 3.33045955 1354.19130557 3.33584368 1352.49721277 C3.34801447 1347.86933002 3.34782023 1343.24151989 3.34545493 1338.61362481 C3.34504525 1333.61131201 3.35610052 1328.60902202 3.36557007 1323.60671997 C3.38214977 1313.8151682 3.38767829 1304.02364052 3.38879482 1294.23207588 C3.38974697 1286.26630004 3.3938656 1278.3005321 3.40019608 1270.33475876 C3.41780215 1247.7180354 3.42703623 1225.10133099 3.42553513 1202.48460074 C3.42545522 1201.26652331 3.4253753 1200.04844589 3.42529297 1198.79345703 C3.42521121 1197.57388059 3.42512945 1196.35430415 3.42504521 1195.09777085 C3.42423304 1175.35165851 3.44335484 1155.60562257 3.4715697 1135.85953231 C3.50035518 1115.55271791 3.51410681 1095.2459407 3.51238215 1074.93910539 C3.51172008 1063.5512452 3.51713141 1052.16346506 3.53873825 1040.77562332 C3.55702497 1031.07589437 3.56123642 1021.37628175 3.5477194 1011.67654295 C3.54122667 1006.73605256 3.54093734 1001.79578484 3.5584259 996.85531616 C3.64160541 971.78159201 2.82498205 948.33433794 -5.9453125 924.515625 C-6.32212158 923.49009521 -6.32212158 923.49009521 -6.70654297 922.44384766 C-16.18223549 897.16179479 -31.74995149 873.53214929 -52.9453125 856.515625 C-53.88761719 855.74734375 -54.82992187 854.9790625 -55.80078125 854.1875 C-81.34263161 833.71587383 -112.4661157 822.01053431 -145.23828125 821.25390625 C-145.9681424 821.23663483 -146.69800354 821.2193634 -147.44998169 821.2015686 C-151.11244645 821.12224756 -154.77223111 821.07416438 -158.43554688 821.06933594 C-167.9604235 820.99210438 -174.33651686 819.55916929 -182.2578125 814.328125 C-187.26955332 809.08327996 -189.16399242 803.80763903 -189.5078125 796.578125 C-189.22774714 789.4861474 -187.1408634 783.67836737 -182.04296875 778.6328125 C-174.32502075 772.49993252 -167.07915971 772.18705023 -157.5078125 772.265625 C-156.30930664 772.27311768 -155.11080078 772.28061035 -153.87597656 772.28833008 C-107.357285 772.83890174 -63.61529327 786.37040907 -26.9453125 815.515625 C-26.09453125 816.16273438 -25.24375 816.80984375 -24.3671875 817.4765625 C-15.74371548 824.21526369 -8.20747017 832.06759551 -0.55834961 839.87084961 C0.6394559 841.09222326 1.84504052 842.30597802 3.0546875 843.515625 C3.12325922 773.22037691 3.18685527 702.92512481 3.22406006 632.62985229 C3.22461229 631.58913154 3.22516452 630.54841079 3.22573348 629.47615304 C3.23770566 606.85740941 3.24878631 584.23866543 3.25894882 561.61992092 C3.26393808 550.52737558 3.2691243 539.43483035 3.27441406 528.34228516 C3.27519862 526.68654026 3.27519862 526.68654026 3.27599902 524.99734597 C3.29303837 489.23180949 3.32307911 453.46629831 3.35987638 417.70077715 C3.39762784 380.94097996 3.42223417 344.18119678 3.43034746 307.42138053 C3.43150005 302.2269538 3.43280259 297.03252711 3.43419647 291.83810043 C3.43446616 290.81578269 3.43473586 289.79346495 3.43501372 288.74016788 C3.43973694 272.29681401 3.45827934 255.85350349 3.48201564 239.41016727 C3.50559426 222.87110405 3.51455199 206.33208372 3.50869301 189.79300429 C3.50565531 179.97199413 3.5137203 170.1511412 3.53787767 160.33015949 C3.55292978 153.76078471 3.55330538 147.19151232 3.54201475 140.62213034 C3.53600353 136.8846749 3.53611885 133.14751579 3.55422023 129.41009273 C3.71029413 95.17300557 -3.43593206 66.22640614 -28.0703125 40.890625 C-43.69457593 25.4016465 -63.6744808 16.28269778 -84.9453125 11.515625 C-86.03328125 11.26941406 -87.12125 11.02320313 -88.2421875 10.76953125 C-119.60378274 5.11352216 -152.82582336 11.07243285 -180.9453125 25.515625 Z " fill="#FAFAFA" transform="translate(948.9453125,274.484375)"/>
<path d="M0 0 C1.11353947 1.01248584 2.22423583 2.02810759 3.33203125 3.046875 C4.1511499 3.79807617 4.1511499 3.79807617 4.98681641 4.56445312 C23.26846597 21.54995488 36.84017441 42.53527741 47.33203125 65.046875 C47.86570312 66.18511719 48.399375 67.32335937 48.94921875 68.49609375 C53.95921234 79.6712349 58.67197401 91.86010186 60.33203125 104.046875 C61.646875 104.15902344 61.646875 104.15902344 62.98828125 104.2734375 C119.56839442 110.13844923 174.22616071 142.35436526 210.50390625 185.75390625 C213.21521714 189.11110045 215.78441529 192.56479754 218.33203125 196.046875 C219.17807317 197.17471346 220.02442861 198.30231681 220.87109375 199.4296875 C249.95258812 238.63501936 264.84742416 285.77639793 264.64453125 334.421875 C264.64437012 335.22072113 264.64420898 336.01956726 264.64404297 336.84262085 C264.62686528 349.12175695 263.90295813 361.00330681 261.33203125 373.046875 C262.00621094 373.14097656 262.68039062 373.23507812 263.375 373.33203125 C267.06568735 374.22423176 270.27907196 375.77532057 273.64453125 377.484375 C274.34239746 377.83781982 275.04026367 378.19126465 275.75927734 378.55541992 C294.39169381 388.1723531 310.21686551 400.62161309 325.33203125 415.046875 C326.31236328 415.94792969 326.31236328 415.94792969 327.3125 416.8671875 C333.37685237 422.60023321 338.30926978 429.41133621 343.33203125 436.046875 C344.26015625 437.26503906 344.26015625 437.26503906 345.20703125 438.5078125 C355.42335162 452.50613609 363.19962861 467.88790306 369.33203125 484.046875 C369.80253906 485.2740625 370.27304688 486.50125 370.7578125 487.765625 C380.96137007 516.32295022 383.50359977 546.77308117 379.8671875 576.75 C379.78758789 577.45576172 379.70798828 578.16152344 379.62597656 578.88867188 C379.33203125 581.046875 379.33203125 581.046875 378.82714844 583.34570312 C377.96028625 587.7552166 377.96028625 587.7552166 379.35668945 591.88769531 C380.95696693 593.74533429 382.65097448 595.38876415 384.45703125 597.046875 C385.7627672 598.34268391 387.06207474 599.64499693 388.35546875 600.953125 C389.02030273 601.62214844 389.68513672 602.29117188 390.37011719 602.98046875 C422.78822531 637.12517597 442.22091888 684.55781763 451.33203125 730.046875 C451.60104248 731.38782227 451.60104248 731.38782227 451.87548828 732.75585938 C457.1753528 760.98671663 456.84353725 793.88738692 451.33203125 822.046875 C451.0985498 823.36631104 451.0985498 823.36631104 450.86035156 824.71240234 C444.30339237 861.60020568 429.26674197 897.65987913 407.33203125 928.046875 C406.89568359 928.65547363 406.45933594 929.26407227 406.00976562 929.89111328 C399.99886663 938.23438749 393.74572011 946.08728906 386.609375 953.49609375 C383.4547285 956.95090687 383.4547285 956.95090687 381.33203125 961.046875 C381.64055949 964.04473454 382.54503543 966.80831322 383.45703125 969.671875 C385.41658605 976.40670002 387.02068093 983.04824631 388.08203125 989.984375 C388.19691895 990.71543457 388.31180664 991.44649414 388.43017578 992.19970703 C397.13113137 1050.98037079 380.96479106 1111.31210758 346.03491211 1159.01025391 C332.79949634 1176.79820918 317.99570086 1193.53381401 300.33203125 1207.046875 C299.74341309 1207.50658691 299.15479492 1207.96629883 298.54833984 1208.43994141 C289.20236131 1215.73592617 279.68428903 1222.26993468 269.33203125 1228.046875 C268.5735791 1228.4785498 267.81512695 1228.91022461 267.03369141 1229.35498047 C246.62508572 1240.89704877 224.90233581 1247.99490059 202.33203125 1254.046875 C202.3477417 1254.61792969 202.36345215 1255.18898438 202.37963867 1255.77734375 C203.09018726 1285.95017484 198.93468464 1314.86637926 185.33203125 1342.046875 C184.97737793 1342.77100586 184.62272461 1343.49513672 184.25732422 1344.24121094 C171.71876526 1369.70187451 153.13268911 1391.20729382 130.33203125 1408.046875 C129.77483398 1408.46437012 129.21763672 1408.88186523 128.64355469 1409.31201172 C104.61091633 1427.10011545 73.40099393 1439.31899955 43.328125 1440.3125 C33.27867655 1440.24694305 33.27867655 1440.24694305 24.5625 1444.34375 C22.52691479 1447.47797081 20.9632247 1450.68631443 19.33203125 1454.046875 C17.72052716 1456.43545182 15.9507288 1458.67823159 14.14453125 1460.921875 C13.68344971 1461.50251709 13.22236816 1462.08315918 12.74731445 1462.68139648 C4.24940432 1473.25544274 -4.8440988 1482.82445019 -15.66796875 1491.046875 C-17.06595703 1492.15095703 -17.06595703 1492.15095703 -18.4921875 1493.27734375 C-55.0292988 1521.61921513 -99.75203398 1532.07346039 -145.45703125 1527.5859375 C-149.92826231 1527.00804507 -154.29169921 1526.12210414 -158.66796875 1525.046875 C-159.49329102 1524.84819824 -160.31861328 1524.64952148 -161.16894531 1524.44482422 C-207.74655768 1512.90843971 -247.06281416 1483.95712733 -272.37353516 1443.20458984 C-288.84322543 1415.7509643 -299.00428985 1385.25568929 -298.94517994 1353.02559853 C-298.95083999 1351.78629144 -298.95650005 1350.54698436 -298.96233162 1349.27012251 C-298.97594 1345.85502114 -298.98083147 1342.44011703 -298.98189416 1339.02500284 C-298.98524719 1335.28942271 -299.0000849 1331.55388409 -299.01337224 1327.8183285 C-299.03795899 1320.39750616 -299.0519468 1312.97669844 -299.06262235 1305.55584454 C-299.0759532 1296.6172695 -299.10048663 1287.67873359 -299.12513559 1278.74018384 C-299.17347045 1261.04944015 -299.20983291 1243.35868604 -299.24119743 1225.667905 C-299.26917915 1209.88782227 -299.30125423 1194.10775389 -299.33675575 1178.32768631 C-299.59569916 1062.68872734 -299.73223615 947.04960295 -299.85357475 609.00101852 C-299.85356364 607.7927198 -299.85355252 606.58442108 -299.85354107 605.33950725 C-299.85350644 601.67455262 -299.85346905 598.00959799 -299.85343063 594.34464335 C-299.85341812 593.13409318 -299.8534056 591.923543 -299.85339271 590.67630948 C-299.85328692 580.65715886 -299.85328692 580.65715886 -299.85321448 575.9903135 C-299.85261753 537.07247753 -299.86040925 498.15464999 -299.8737793 459.23681641 C-299.88913008 414.5459737 -299.89774914 369.85513653 -299.89681607 325.16429102 C-299.89674151 320.4238139 -299.89669276 315.68333677 -299.89666176 310.94285965 C-299.8966501 309.7772523 -299.89663845 308.61164496 -299.89662644 307.41071618 C-299.89659596 288.84153171 -299.90290827 270.27235488 -299.91159402 251.70317268 C-299.92004446 233.26703755 -299.92107778 214.83091358 -299.9144847 196.39477758 C-299.91079758 185.50117549 -299.91259982 174.60760745 -299.92242704 163.71400898 C-299.92843314 156.44189388 -299.92712514 149.16980343 -299.91995654 141.89768945 C-299.91608632 137.76647119 -299.91526789 133.63531891 -299.9234139 129.50410537 C-299.99735599 89.41051873 -299.99735599 89.41051873 -295.54296875 71.671875 C-295.22646362 70.38579346 -295.22646362 70.38579346 -294.90356445 69.07373047 C-287.85140901 41.75501762 -274.4426906 18.9115865 -255.66796875 -1.953125 C-255.0646875 -2.62988281 -254.46140625 -3.30664062 -253.83984375 -4.00390625 C-190.01465397 -71.53611463 -76.88045143 -61.31836818 0 0 Z M-197.66796875 15.046875 C-198.65539063 15.59085938 -199.6428125 16.13484375 -200.66015625 16.6953125 C-220.65840537 28.5783301 -235.29137232 47.91429615 -243.48046875 69.421875 C-243.75850342 70.13931885 -244.03653809 70.8567627 -244.32299805 71.59594727 C-250.35582774 88.32809683 -250.09850434 105.24771588 -250.03476733 122.78826895 C-250.02436723 126.57952423 -250.03159548 130.37075516 -250.0364998 134.16201591 C-250.04269291 140.79377968 -250.03783804 147.42546235 -250.02558517 154.05721664 C-250.00741675 163.91824579 -250.00658362 173.77922423 -250.00921114 183.64026706 C-250.0131454 200.2312425 -250.00315694 216.82218199 -249.98515892 233.41314697 C-249.96739137 249.83384377 -249.95585776 266.25452559 -249.95260048 282.67523193 C-249.95239426 283.69725602 -249.95218804 284.71928011 -249.95197557 285.77227463 C-249.95096054 290.96288442 -249.9500564 296.15349423 -249.94919495 301.34410405 C-249.94289826 338.08325403 -249.92269887 374.82238446 -249.89428711 411.56152344 C-249.86672204 447.24706926 -249.84547696 482.93260972 -249.83276367 518.61816406 C-249.83236909 519.71867291 -249.83197451 520.81918175 -249.83156798 521.95303935 C-249.82761233 533.00507454 -249.8237849 544.05710977 -249.8200514 555.10914503 C-249.81244332 577.62224281 -249.80397956 600.13534023 -249.79499817 622.6484375 C-249.7945863 623.68349169 -249.79417443 624.71854587 -249.79375008 625.78496534 C-249.76616072 694.87227668 -249.7186266 763.95957719 -249.66796875 833.046875 C-246.88875369 830.27111657 -244.11692532 827.49181252 -241.390625 824.6640625 C-233.31152262 816.3682199 -225.02079912 808.87367901 -215.66796875 802.046875 C-214.6109375 801.26828125 -213.55390625 800.4896875 -212.46484375 799.6875 C-204.22735068 793.80357638 -195.62402993 788.74986827 -186.66796875 784.046875 C-186.01376953 783.70269531 -185.35957031 783.35851563 -184.68554688 783.00390625 C-154.95548246 767.62323863 -123.08058451 762.09592724 -89.91796875 761.671875 C-88.15066406 761.63271973 -88.15066406 761.63271973 -86.34765625 761.59277344 C-76.93739527 761.57393138 -69.20845348 763.64320269 -62.1796875 770.1640625 C-57.86565849 775.53709088 -56.29387239 781.93590904 -56.60546875 788.734375 C-57.59189324 795.64921068 -60.62204357 800.00094982 -65.48046875 804.859375 C-73.38013606 810.28071531 -80.42855291 810.45886404 -89.80462646 810.5279541 C-116.62276369 810.76805872 -140.47041293 815.2944771 -164.66796875 827.046875 C-165.66183594 827.51738281 -166.65570312 827.98789063 -167.6796875 828.47265625 C-181.16209232 835.30454748 -192.84973451 845.62869873 -203.66796875 856.046875 C-204.62896484 856.93052734 -204.62896484 856.93052734 -205.609375 857.83203125 C-231.65774523 882.42991219 -247.0294315 920.80055189 -249.66796875 956.046875 C-249.81797435 961.50718394 -249.81180142 966.96625116 -249.80841064 972.42810059 C-249.81099729 974.09842195 -249.81401128 975.7687427 -249.81741405 977.4390626 C-249.82545214 982.0149501 -249.82727183 986.59082189 -249.82801151 991.16671562 C-249.82986765 996.1076283 -249.83741779 1001.04853292 -249.84414673 1005.98944092 C-249.85770794 1016.7872246 -249.86375134 1027.58500456 -249.86815739 1038.38279533 C-249.87092359 1045.13010105 -249.87516163 1051.87740533 -249.87966156 1058.62471008 C-249.8918514 1077.32071594 -249.90215124 1096.01672066 -249.90553665 1114.71273041 C-249.90575622 1115.90848793 -249.90597578 1117.10424546 -249.906202 1118.33623806 C-249.90642028 1119.53479123 -249.90663856 1120.73334441 -249.90686345 1121.96821737 C-249.90730691 1124.39678033 -249.90775347 1126.82534329 -249.90820312 1129.25390625 C-249.90842455 1130.45854706 -249.90864598 1131.66318786 -249.90887412 1132.90433294 C-249.9128204 1152.4147368 -249.93027053 1171.92510327 -249.95356265 1191.43549269 C-249.97730518 1211.48567122 -249.98973983 1231.535831 -249.99090457 1251.58602381 C-249.9918197 1262.8357055 -249.99753125 1274.08533848 -250.01572418 1285.33500671 C-250.03116437 1294.91599091 -250.03622257 1304.49691132 -250.02798608 1314.0779056 C-250.02409342 1318.9610148 -250.02494115 1323.84399571 -250.03904343 1328.72708893 C-250.05186571 1333.20818463 -250.05051256 1337.68905673 -250.03845271 1342.17015249 C-250.03651003 1343.78054083 -250.03950702 1345.39094548 -250.04829708 1347.001311 C-250.12302654 1361.63297379 -248.32499623 1375.72191685 -243.48046875 1389.609375 C-243.18003662 1390.48650146 -242.87960449 1391.36362793 -242.57006836 1392.26733398 C-234.50504919 1415.09297737 -220.59188965 1435.80183121 -201.66796875 1451.046875 C-200.67925781 1451.84480469 -199.69054688 1452.64273437 -198.671875 1453.46484375 C-172.62429714 1473.61641114 -139.03264939 1481.89882371 -106.53955078 1478.07983398 C-92.63248113 1476.2158058 -80.26516528 1472.18140229 -67.66796875 1466.046875 C-66.66894531 1465.5621875 -65.66992188 1465.0775 -64.640625 1464.578125 C-53.41177012 1458.77842951 -43.82370258 1450.67319565 -34.66796875 1442.046875 C-33.9925 1441.43585938 -33.31703125 1440.82484375 -32.62109375 1440.1953125 C-23.04534947 1431.19411288 -16.25180509 1419.97578174 -10.33056641 1408.35205078 C-6.86580392 1401.75553374 -2.18784051 1395.16111339 5.10791016 1392.5 C9.99357687 1391.50463256 14.99617516 1391.60389001 19.96490479 1391.56634521 C58.52256151 1391.20096208 88.9449286 1380.74139061 117.33203125 1354.046875 C117.99589844 1353.4590625 118.65976563 1352.87125 119.34375 1352.265625 C140.03406011 1333.12813735 152.15383817 1301.75341552 153.33203125 1274.046875 C153.53701992 1265.97270972 153.59425669 1257.90629784 152.83203125 1249.859375 C150.68921672 1226.8001321 150.68921672 1226.8001321 157.8046875 1217.0234375 C164.52418121 1209.49379206 174.06037443 1207.62754145 183.64453125 1206.171875 C222.37585986 1199.66657042 256.10830404 1182.30535846 284.33203125 1155.046875 C285.31479445 1154.12727307 286.29787075 1153.20800563 287.28125 1152.2890625 C313.19242622 1127.68447474 328.82343065 1095.36064614 337.33203125 1061.046875 C337.52555176 1060.27827148 337.71907227 1059.50966797 337.91845703 1058.71777344 C340.66484721 1047.18136083 340.60773803 1035.46417683 340.64453125 1023.671875 C340.65031693 1022.51081238 340.65031693 1022.51081238 340.65621948 1021.32629395 C340.67984647 1011.69312279 340.15141189 1002.53431496 338.33203125 993.046875 C337.35105469 993.54316406 336.37007812 994.03945312 335.359375 994.55078125 C331.75396789 996.3694938 328.13941265 998.16924753 324.52050781 999.9609375 C323.1585519 1000.63674963 321.79821612 1001.31584948 320.44042969 1002 C306.65185587 1008.92847345 292.06497024 1013.94048538 277.01953125 1017.359375 C276.37653076 1017.50656982 275.73353027 1017.65376465 275.07104492 1017.80541992 C262.58736153 1020.43964821 250.06182419 1021.34637594 237.33203125 1021.33740234 C235.9140946 1021.3434098 234.49616116 1021.35022028 233.07823181 1021.35775757 C229.28329054 1021.37517801 225.48843978 1021.380102 221.69346237 1021.38138914 C219.3153365 1021.38282256 216.93723284 1021.38711385 214.55911255 1021.39238358 C206.24398361 1021.41078883 197.92891818 1021.41906428 189.61376953 1021.41748047 C181.88817266 1021.41627453 174.16285306 1021.4374894 166.43732643 1021.4689678 C159.77280183 1021.49514684 153.10836795 1021.50584742 146.44379234 1021.50456965 C142.47650696 1021.50406145 138.50946998 1021.5096686 134.54223633 1021.53092575 C130.81880429 1021.55034162 127.09585745 1021.55041031 123.37240791 1021.53589249 C121.36543031 1021.5328198 119.35845242 1021.54944807 117.35154724 1021.56677246 C108.69685643 1021.50666618 103.27650148 1020.45346293 96.58203125 1014.671875 C90.74471931 1007.86167773 88.96536931 1002.96513582 89.05078125 994.125 C89.67820985 987.25814257 93.1030953 982.42458881 98.33203125 978.046875 C103.98984534 974.27499894 108.42318731 972.92547678 115.16545105 972.90884399 C116.35802017 972.90339066 117.55058929 972.89793732 118.77929688 972.89231873 C120.08471436 972.8912764 121.39013184 972.89023407 122.73510742 972.88916016 C124.12681742 972.88448945 125.5185259 972.87934546 126.91023254 972.87376404 C129.90800521 972.86249141 132.90576798 972.85405269 135.90355492 972.84764481 C140.65948009 972.83693159 145.41533492 972.81667293 150.17121887 972.79452515 C163.69606255 972.73272864 177.22090348 972.67877523 190.74584961 972.64550781 C198.2154549 972.6270544 205.6849434 972.59797826 213.15446264 972.5575031 C217.09922721 972.53659581 221.04384559 972.52099943 224.98866844 972.51869583 C247.83264404 972.62663496 247.83264404 972.62663496 270.33203125 969.046875 C271.17786774 968.85504135 272.02370422 968.6632077 272.89517212 968.46556091 C316.02021378 958.11069165 351.19120293 927.11001039 374.01953125 890.109375 C404.71853229 839.24951448 412.78789995 779.63372707 399.08691406 722.01171875 C389.79971447 685.53573172 370.22342148 650.28708894 343.21484375 623.984375 C342.50078369 623.28860352 341.78672363 622.59283203 341.05102539 621.87597656 C339.65118483 620.52637369 338.23947067 619.18893942 336.81420898 617.86621094 C331.28228248 612.56025848 327.95055516 607.30348837 326.8359375 599.6328125 C326.97357148 592.09047021 327.88797952 585.07146731 329.578125 577.71484375 C336.93185633 541.93684521 328.65593969 502.65557277 308.88671875 472.1640625 C306.5131026 468.67488502 303.97299208 465.33704806 301.33203125 462.046875 C300.61611816 461.15379639 300.61611816 461.15379639 299.88574219 460.24267578 C290.09602056 448.17293755 279.32960677 438.5664301 266.33203125 430.046875 C265.5225 429.50160156 264.71296875 428.95632813 263.87890625 428.39453125 C244.99312877 416.28579297 223.89264187 411.91648135 201.79418945 411.85400391 C200.22118963 411.84609021 198.64819155 411.8378205 197.07519531 411.82922363 C191.92775168 411.80313477 186.78030049 411.78770214 181.6328125 411.7734375 C179.85022669 411.7680711 178.06764091 411.76269359 176.28505516 411.75730515 C168.8584949 411.73568946 161.43193668 411.71696089 154.00535297 411.70568275 C143.42140425 411.68949577 132.83782556 411.65643118 122.25401622 411.59928191 C114.78097731 411.56033047 107.30803628 411.54102014 99.83489865 411.53576219 C95.38802193 411.53214101 90.94154098 411.5204715 86.49477577 411.48765945 C61.5242571 411.31258028 39.44094713 412.22586821 17.33203125 425.046875 C16.35105469 425.59085938 15.37007812 426.13484375 14.359375 426.6953125 C2.53153929 433.67288465 -7.33924045 443.47684012 -14.66796875 455.046875 C-15.35632812 456.12710937 -16.0446875 457.20734375 -16.75390625 458.3203125 C-27.1862261 475.30024451 -29.9775534 492.63459189 -30.05859375 512.34765625 C-30.22746445 521.30718529 -31.20221125 528.85148434 -37.04296875 535.921875 C-44.85570655 542.24647227 -50.6823655 544.09286998 -60.66796875 543.046875 C-68.0689468 540.83793594 -72.91127556 536.7480034 -76.66796875 530.046875 C-85.74911898 510.57069702 -77.36185819 478.15089996 -70.65136719 458.64233398 C-65.22161159 443.88247653 -57.4120875 430.36012516 -47.66796875 418.046875 C-47.20664551 417.46067383 -46.74532227 416.87447266 -46.27001953 416.27050781 C-24.20229756 388.57562884 9.29022751 369.02702607 44.54533386 364.45303345 C61.03847613 362.6003111 77.58205552 362.69663139 94.154526 362.64215803 C98.35852405 362.6263049 102.56245434 362.59958822 106.7664032 362.5741272 C114.69177137 362.52772543 122.61715285 362.49079727 130.54258555 362.45745432 C139.58042787 362.41895649 148.61820148 362.36962092 157.65598547 362.31947017 C176.21461682 362.216726 194.77329034 362.12728255 213.33203125 362.046875 C213.66165925 359.47434345 213.98915514 356.90157046 214.31542969 354.32861328 C214.40859467 353.60325882 214.50175964 352.87790436 214.5977478 352.13056946 C220.39839104 306.22378871 204.68195873 258.69045366 176.70703125 222.609375 C172.58081125 217.38956243 168.18913479 212.60250315 163.33203125 208.046875 C158.33203125 203.046875 158.33203125 203.046875 156.9296875 201.5390625 C142.95815238 186.8501625 124.53766553 176.53473172 106.33203125 168.046875 C105.17058594 167.50160156 104.00914062 166.95632813 102.8125 166.39453125 C96.52441608 163.57028327 90.17248994 161.22965148 83.58203125 159.234375 C82.90922119 159.02723877 82.23641113 158.82010254 81.54321289 158.60668945 C76.18884307 157.0618968 70.88049563 156.46165341 65.33203125 156.046875 C65.21988281 157.76003906 65.21988281 157.76003906 65.10546875 159.5078125 C62.10876499 198.55912012 48.57669841 235.7442009 22.33203125 265.046875 C21.58179688 265.92988281 20.8315625 266.81289063 20.05859375 267.72265625 C-4.1669342 295.8400109 -40.30512151 311.07723094 -76.73046875 313.984375 C-97.74819904 315.70295184 -113.93921651 323.41793385 -127.765625 339.484375 C-139.08729228 354.61310843 -140.97223039 370.48691341 -140.94262695 388.67944336 C-140.94698063 390.45302544 -140.95216596 392.22660565 -140.95811462 394.00018311 C-140.97145202 398.79618963 -140.97208868 403.59211709 -140.96955132 408.38813853 C-140.96847705 412.40811684 -140.97337713 416.42807945 -140.97815675 420.44805437 C-140.98923591 429.94658282 -140.9896997 439.44507174 -140.98364258 448.94360352 C-140.97761722 458.69782595 -140.98988085 468.45190361 -141.01121265 478.20610136 C-141.02891703 486.61503221 -141.03481577 495.02391738 -141.0315749 503.43286616 C-141.02977435 508.43955171 -141.03227313 513.44613421 -141.04628944 518.45280266 C-141.05900615 523.17170977 -141.05679512 527.89039441 -141.04387856 532.60929871 C-141.04154218 534.32515099 -141.04413947 536.04101961 -141.05250168 537.7568531 C-141.21692439 574.16937834 -129.08745619 605.0674824 -104.66796875 632.046875 C-103.92675781 632.87316406 -103.18554688 633.69945312 -102.421875 634.55078125 C-78.76550763 659.54871955 -45.35976013 671.2939395 -11.66796875 673.046875 C-5.96882332 673.18754379 -0.27240212 673.20425373 5.42822266 673.20800781 C7.09552619 673.2126493 8.76282868 673.21767568 10.43013 673.22305298 C14.91550048 673.23604088 19.4008561 673.24259358 23.88624239 673.24706364 C26.69622141 673.25001326 29.50619653 673.25412116 32.31617355 673.25856781 C41.13143314 673.27219952 49.94668361 673.28189031 58.761953 673.2857697 C68.89686194 673.29025644 79.03163643 673.30785111 89.1665045 673.3367703 C97.03357865 673.35843175 104.90061504 673.36847617 112.76771867 673.36981082 C117.4527592 673.37085455 122.13767259 673.37667138 126.82268143 673.39463043 C131.22725467 673.4111914 135.63160615 673.41322799 140.03619957 673.40449142 C141.64373433 673.40372565 143.25128146 673.40800247 144.85878563 673.41794968 C162.49393259 673.52060385 177.95468868 670.10309252 191.078125 657.52734375 C201.59790566 645.95011546 205.81431676 632.36105526 205.54296875 616.96484375 C204.74501223 602.14354021 198.0336088 590.12832802 187.33203125 580.046875 C184.46171122 577.77697906 181.51202969 575.85265983 178.33203125 574.046875 C177.31109375 573.46292969 177.31109375 573.46292969 176.26953125 572.8671875 C169.00075395 568.9772559 161.91210873 567.74681367 153.76391602 567.79150391 C152.94815094 567.78788345 152.13238586 567.784263 151.29190063 567.78053284 C149.53448663 567.77368154 147.77705155 567.77112532 146.01962471 567.77248001 C143.23135833 567.77345217 140.44347017 567.76042239 137.65525818 567.74349976 C129.73268516 567.6974322 121.81015372 567.67262648 113.88745117 567.66601562 C109.02808565 567.66098499 104.16911897 567.63666165 99.30988884 567.60068893 C97.46686135 567.59093197 95.62377873 567.58853643 93.78073311 567.59386063 C75.36972447 567.64456609 75.36972447 567.64456609 68.33203125 563.046875 C67.42453125 562.49 66.51703125 561.933125 65.58203125 561.359375 C60.22480197 555.8533338 57.45348912 549.69872103 57.33203125 542.046875 C58.38668103 534.66432656 61.4278547 527.98722979 67.515625 523.40234375 C73.65605357 519.80920932 79.29459172 518.92296994 86.38378906 518.91748047 C87.56072327 518.91432831 88.73765747 518.91117615 89.95025635 518.90792847 C91.21577332 518.9099527 92.48129028 518.91197693 93.78515625 518.9140625 C95.1267702 518.91338653 96.46838402 518.91241408 97.80999756 518.91116333 C100.63099323 518.90969001 103.45195724 518.91182241 106.27294922 518.91650391 C109.80458602 518.92209241 113.3361458 518.91887859 116.86777973 518.91308498 C130.49383505 518.8938761 144.11434922 518.96868722 157.734375 519.41796875 C158.76173767 519.44676117 159.78910034 519.47555359 160.84759521 519.50521851 C175.27897561 520.06298991 188.62247259 524.24752263 201.33203125 531.046875 C202.19957031 531.50835938 203.06710937 531.96984375 203.9609375 532.4453125 C227.52598899 545.79515388 242.68417164 568.10256241 250.47265625 593.5859375 C257.09973504 620.27499119 254.19123313 648.15252868 240.33203125 672.046875 C225.59142253 696.42388166 203.33787352 711.5450186 176.20703125 719.1015625 C169.98568157 720.61927079 163.97943541 721.19537553 157.59046936 721.18731689 C156.46758716 721.19177358 156.46758716 721.19177358 155.32202047 721.1963203 C152.82933347 721.20494762 150.33669485 721.20651053 147.84399414 721.20800781 C146.04941202 721.21264069 144.25483087 721.21766598 142.46025085 721.22305298 C137.59144095 721.23614489 132.72264483 721.24261717 127.85382009 721.24706364 C124.80139881 721.25000317 121.74898122 721.25410989 118.69656181 721.25856781 C109.11665715 721.27224227 99.536761 721.28190581 89.95684725 721.2857697 C78.9560346 721.29023249 67.95534732 721.30769739 56.95457274 721.3367703 C48.41824348 721.3585334 39.88194908 721.36848192 31.34559244 721.36981082 C26.26435829 721.37084964 21.18324196 721.37655584 16.10203743 721.39463043 C-44.68177761 721.59817659 -95.41120921 708.80881247 -139.79296875 665.296875 C-162.44857673 642.5955958 -178.25051655 612.03985109 -185.48046875 580.921875 C-185.67535889 580.08897949 -185.87024902 579.25608398 -186.07104492 578.39794922 C-189.21285338 563.95587686 -189.967253 549.52762957 -189.94262695 534.80322266 C-189.94698824 533.04831224 -189.95217602 531.29340371 -189.95811462 529.53849792 C-189.97136266 524.82554734 -189.97209942 520.11267763 -189.96955132 515.39971209 C-189.96847203 511.4415157 -189.97338913 507.48333504 -189.97815675 503.52514207 C-189.98920252 494.17560327 -189.98971705 484.82610465 -189.98364258 475.4765625 C-189.9776047 465.88294778 -189.98992052 456.28947978 -190.01121265 446.69589007 C-190.02891538 438.40995919 -190.03481648 430.12407465 -190.0315749 421.83812559 C-190.02977592 416.91090923 -190.03225813 411.98379761 -190.04628944 407.05659866 C-190.05900577 402.41885428 -190.05679553 397.78133626 -190.04387856 393.14359474 C-190.04154305 391.4583751 -190.04413621 389.77313881 -190.05250168 388.08793831 C-190.1924263 357.66676921 -182.30654279 329.72969291 -162.66796875 306.046875 C-161.96027344 305.18707031 -161.25257813 304.32726562 -160.5234375 303.44140625 C-140.6142047 280.30364921 -113.38445266 268.1290961 -83.35546875 265.609375 C-73.07669181 264.63871322 -63.44738537 263.50210256 -53.66796875 260.046875 C-52.65734375 259.70011719 -51.64671875 259.35335938 -50.60546875 258.99609375 C-37.96984162 254.20837566 -27.30415056 246.40475553 -17.66796875 237.046875 C-17.05695313 236.49773437 -16.4459375 235.94859375 -15.81640625 235.3828125 C4.22650432 216.80422416 14.55780362 185.48678305 16.2421875 158.82421875 C16.27183594 157.90769531 16.30148437 156.99117187 16.33203125 156.046875 C16.37199219 154.85191406 16.41195313 153.65695312 16.453125 152.42578125 C17.35058833 111.53796033 2.13046114 73.4020944 -25.90234375 43.8828125 C-53.48017419 15.60385078 -90.50828548 -0.46670463 -130.015625 -1.23632812 C-154.63316144 -1.44830462 -176.10748212 3.11097064 -197.66796875 15.046875 Z " fill="#FAFAFA" transform="translate(1345.66796875,284.953125)"/>
<path d="M0 0 C2.34255637 -0.00435633 4.68511131 -0.00954252 7.02766418 -0.01548767 C13.33906026 -0.02878155 19.65039611 -0.02946775 25.96180344 -0.02692437 C31.91344655 -0.02571288 37.86507979 -0.0319475 43.81671989 -0.03735783 C56.31214984 -0.04818873 68.80755268 -0.04609056 81.30298412 -0.03997298 C92.7189762 -0.03479311 104.13488324 -0.04609535 115.5508585 -0.0650712 C127.3069672 -0.08446127 139.06303567 -0.09270449 150.81916046 -0.08894795 C157.40602091 -0.08713673 163.99280321 -0.08975651 170.57965088 -0.10366249 C176.76532873 -0.11623623 182.95083562 -0.1143009 189.13651085 -0.1012516 C191.40322617 -0.09888632 193.66995353 -0.10161877 195.93665504 -0.10987473 C199.03536055 -0.12034636 202.13349261 -0.11223818 205.23217773 -0.0995636 C206.12430277 -0.10693788 207.0164278 -0.11431217 207.93558693 -0.12190992 C216.37236534 -0.04952612 223.86957643 2.04891529 230.4765625 7.42700195 C235.45461837 12.54574201 237.55647323 18.26040169 237.8359375 25.3371582 C237.50761899 32.43248593 235.46630156 37.6778455 230.8984375 43.0871582 C225.93245503 47.22547693 221.73663379 50.39563494 215.13834858 50.40494347 C214.2922941 50.40856781 213.44623961 50.41219216 212.57454711 50.41592634 C211.64480817 50.41485808 210.71506922 50.41378983 209.75715637 50.41268921 C208.27566488 50.41692113 208.27566488 50.41692113 206.76424426 50.42123854 C203.43893168 50.4296029 200.11365233 50.43092441 196.78833008 50.43237305 C194.40993658 50.43704019 192.03154398 50.44218358 189.65315247 50.44776917 C184.52126461 50.45906334 179.3893826 50.46749141 174.25748634 50.4738884 C166.13303597 50.48422416 158.00862638 50.50479341 149.88420105 50.52700806 C147.10241808 50.53448839 144.32063494 50.54190216 141.53885174 50.54929543 C140.49589486 50.55207127 140.49589486 50.55207127 139.43186814 50.5549032 C131.51390892 50.57583715 123.59594516 50.59465853 115.67797852 50.61254883 C114.95416198 50.61418701 114.23034545 50.61582519 113.48459508 50.61751302 C101.7847221 50.64373368 90.08484599 50.66241146 78.38495616 50.67914073 C66.35689519 50.69661592 54.32889545 50.72552356 42.30088347 50.7640301 C35.55431746 50.78524539 28.80782933 50.80097444 22.0612278 50.80283737 C15.70415059 50.80499527 9.34725443 50.82098072 2.99023247 50.8472271 C0.66681545 50.85437966 -1.65662361 50.85654088 -3.98004913 50.85312462 C-34.05413504 50.81599505 -59.10070195 57.38995553 -81.3125 78.76293945 C-99.17396185 97.3113806 -107.2366541 121.39679212 -107.34020996 146.80007935 C-107.35974233 150.73506391 -107.44988472 154.6686752 -107.53125 158.6027832 C-107.54571167 159.36603409 -107.56017334 160.12928497 -107.57507324 160.91566467 C-108.33223575 198.50062691 -121.36517195 232.84764197 -148.14746094 259.76147461 C-170.02063322 280.72157384 -198.5429941 294.01401057 -228.9765625 294.6496582 C-230.09405884 294.68893433 -230.09405884 294.68893433 -231.23413086 294.72900391 C-238.17386092 294.7498393 -243.20143339 292.39806223 -248.4765625 287.9621582 C-253.86867039 281.5215849 -256.12477115 275.5707301 -255.9921875 267.18481445 C-255.23814662 258.92363125 -251.17108986 254.17907741 -245.04296875 248.90356445 C-239.65141686 245.11220334 -234.17264039 244.71875145 -227.7890625 243.9621582 C-218.84856019 242.78358846 -211.01061024 240.96232742 -202.7265625 237.2746582 C-201.7778125 236.85571289 -200.8290625 236.43676758 -199.8515625 236.00512695 C-191.91972666 232.09554309 -185.92584858 226.45613024 -179.7265625 220.2746582 C-179.05625 219.62754883 -178.3859375 218.98043945 -177.6953125 218.3137207 C-164.90533009 205.00051174 -158.69756149 184.40531144 -158.515625 166.33325195 C-158.48997655 164.77415655 -158.46349665 163.21507466 -158.4362793 161.65600586 C-158.42301605 160.84802551 -158.40975281 160.04004517 -158.39608765 159.20758057 C-157.59452114 114.28359645 -146.42617888 75.14833445 -114.7265625 42.2746582 C-113.65341797 41.10676758 -113.65341797 41.10676758 -112.55859375 39.9152832 C-82.80290034 8.42895847 -41.49944086 -0.05146179 0 0 Z " fill="#FAFAFA" transform="translate(1423.7265625,1096.725341796875)"/>
<path d="M0 0 C0.83041176 -0.00384115 1.66082351 -0.00768229 2.51639926 -0.01163983 C3.42356886 -0.01077335 4.33073845 -0.00990687 5.26539803 -0.00901413 C6.71731975 -0.01347081 6.71731975 -0.01347081 8.19857323 -0.01801753 C11.45149854 -0.02670874 14.70438706 -0.02821321 17.95732307 -0.02970505 C20.28672044 -0.03433334 22.61611705 -0.03935802 24.94551277 -0.04475021 C31.28539358 -0.05788504 37.62526379 -0.06432262 43.96515608 -0.06876087 C47.93265074 -0.07169307 51.90014252 -0.07579842 55.86763573 -0.08026505 C66.87378664 -0.09246476 77.87993561 -0.1027579 88.88609314 -0.10614014 C89.59064499 -0.1063597 90.29519684 -0.10657927 91.02109874 -0.10680549 C91.72727375 -0.10702377 92.43344877 -0.10724204 93.16102302 -0.10746694 C94.59182096 -0.10791039 96.02261889 -0.10835695 97.45341682 -0.10880661 C98.16313153 -0.10902804 98.87284624 -0.10924947 99.60406746 -0.10947761 C111.06059828 -0.11341128 122.51706493 -0.13081812 133.97357105 -0.15416613 C145.76435582 -0.17799884 157.55510861 -0.19034762 169.34591782 -0.19150805 C175.95406701 -0.19241895 182.56214269 -0.19834704 189.17027092 -0.21632767 C195.40341156 -0.23295577 201.63639562 -0.2348932 207.8695507 -0.22618866 C210.14047354 -0.2254258 212.41140529 -0.22966002 214.68230629 -0.23964691 C254.24478092 -0.40322674 289.55855559 8.58699405 319.82109261 35.13142776 C320.66027229 35.83783401 321.49945198 36.54424026 322.36406136 37.27205276 C349.78607402 60.91025283 366.36580358 97.43604266 369.82109261 133.13142776 C369.9665385 136.05977083 370.00404089 138.98503256 370.03203011 141.91658401 C370.06012088 143.59953608 370.08878546 145.28247865 370.11796761 146.96541214 C370.15891404 149.56916675 370.19587639 152.17274848 370.22245979 154.77669144 C370.51568979 181.32158951 376.46078578 204.73566251 395.82109261 224.13142776 C396.35992073 224.68185745 396.89874886 225.23228714 397.45390511 225.79939651 C409.84439249 237.41158695 425.79714803 242.16489087 442.26078987 243.91780472 C451.38076368 244.99300343 457.54803587 247.86030124 463.34453011 255.07283401 C468.11033418 261.71722224 468.77456706 268.16461902 467.82109261 276.13142776 C465.39693235 284.0555645 459.75423542 288.91125388 452.82109261 293.13142776 C434.24417876 299.32373238 409.23337399 290.48987714 392.69609261 282.38142776 C381.1713265 276.5202451 371.15329337 269.0933031 361.82109261 260.13142776 C360.92648323 259.29998245 360.03187386 258.46853714 359.11015511 257.61189651 C344.06940699 243.22417808 333.61028458 225.2083844 326.88359261 205.56892776 C326.61329231 204.79218704 326.34299202 204.01544632 326.06450081 203.215168 C321.01831252 187.50117464 320.38428445 171.5198971 320.30986214 155.16316605 C320.10721371 124.15795665 312.59311759 97.85038881 290.78203011 74.99470901 C269.44540113 54.65698589 242.07446578 50.66113914 213.86259651 50.76253128 C211.47107458 50.76005923 209.07955374 50.75621673 206.68803596 50.75111771 C201.56612836 50.74282173 196.4443321 50.74355122 191.32242393 50.75130272 C183.90748901 50.76195307 176.49270124 50.75343284 169.07777838 50.73874091 C157.03046732 50.71504677 144.98317195 50.70161513 132.9358387 50.69758987 C131.85753867 50.69722257 131.85753867 50.69722257 130.7574548 50.69684785 C122.72959483 50.69429954 114.70173608 50.69373677 106.67387581 50.69478226 C103.75729053 50.69511535 100.84070524 50.69540072 97.92411995 50.69563675 C96.84442379 50.69573093 96.84442379 50.69573093 95.74291559 50.69582701 C83.72920119 50.69643237 71.71555927 50.6815348 59.70187509 50.65480369 C52.96852316 50.64044458 46.23534779 50.63423707 39.50198936 50.64784813 C33.17676535 50.66028627 26.85181751 50.65471314 20.52661324 50.63537979 C18.20829902 50.63165497 15.88996208 50.6347575 13.57166862 50.64525032 C10.40264808 50.65863692 7.2346113 50.64739763 4.06562996 50.63022232 C3.15268594 50.6400291 2.23974193 50.64983587 1.29913294 50.65993983 C-5.85329907 50.57999105 -11.82219326 48.78835235 -17.48359489 44.30720901 C-23.01697379 37.74148331 -25.86476474 31.08871882 -25.53046989 22.39705276 C-24.4963404 15.73266268 -21.38251104 10.38892166 -16.17890739 6.13142776 C-10.85328808 2.38967527 -6.61579145 0.01152369 0 0 Z " fill="#FAFAFA" transform="translate(412.1789073944092,1096.8685722351074)"/>
<path d="M0 0 C3.37781302 0.00534387 6.75549183 0.00002464 10.13330078 -0.00634766 C15.6902986 -0.00987713 21.24589042 0.02454337 26.80249023 0.09069824 C29.06463764 0.11754792 31.32685973 0.13862311 33.58911133 0.15441895 C36.95771913 0.18533784 40.3240076 0.25079068 43.69189453 0.32568359 C44.69714172 0.33091034 45.70238892 0.33613708 46.73809814 0.34152222 C54.31070409 0.56648501 60.93732709 2.47507014 66.76409912 7.53689575 C72.60072496 14.03781235 73.78526321 20.35903787 73.55126953 28.84130859 C72.67260854 35.95508314 69.77598753 41.20451556 64.14501953 45.63037109 C58.45805444 49.57455656 53.48048275 50.42368765 46.62963867 50.40161133 C45.36017395 50.40945145 45.36017395 50.40945145 44.06506348 50.41744995 C42.23067638 50.42767311 40.39626042 50.43346742 38.56184578 50.43533134 C35.64643619 50.43900739 32.73136306 50.45577225 29.81602478 50.47608948 C21.527886 50.53135335 13.23969632 50.56202848 4.95141602 50.58666992 C-0.12490633 50.60266858 -5.20099355 50.63302348 -10.27719307 50.6714344 C-12.19981932 50.68298641 -14.12248789 50.68901388 -16.04514885 50.68911552 C-39.70521952 50.69081848 -58.53338635 55.2147613 -76.16748047 72.00537109 C-90.1628906 86.53225249 -94.14530422 104.22709027 -94.12937546 123.74659348 C-94.12840056 126.38847457 -94.14146512 129.02995944 -94.15835571 131.67178345 C-94.20433829 139.17715435 -94.22921909 146.68248107 -94.23583984 154.18798828 C-94.24088185 158.79565425 -94.26526189 163.40290185 -94.30116653 168.01042557 C-94.31089719 169.75411074 -94.31333369 171.49785393 -94.30799484 173.24155807 C-94.27374721 184.97487471 -94.41336942 196.69048255 -103.11279297 205.69287109 C-109.357772 210.8456789 -115.81204409 211.80193566 -123.77294922 211.50537109 C-131.23676682 210.59722599 -135.43620699 207.03378244 -140.31201172 201.52099609 C-144.10068956 195.65094334 -145.30294295 189.96661478 -145.24316406 183.07226562 C-145.2510495 181.92882439 -145.2510495 181.92882439 -145.25909424 180.76228333 C-145.27220609 178.26236954 -145.26357893 175.763103 -145.25341797 173.26318359 C-145.25544332 171.50169759 -145.25835858 169.74021241 -145.26211548 167.97872925 C-145.26652873 164.28863534 -145.26014782 160.59875982 -145.24609375 156.90869141 C-145.22912856 152.23144867 -145.23876831 147.55472735 -145.25681114 142.87750435 C-145.26778453 139.23609679 -145.26413937 135.59480747 -145.25642776 131.95339584 C-145.25445632 130.2322165 -145.25677464 128.51102564 -145.26386642 126.78985977 C-145.37711752 91.53976276 -134.34105644 60.73966156 -109.85498047 35.13037109 C-109.24525391 34.45748047 -108.63552734 33.78458984 -108.00732422 33.09130859 C-89.46347472 13.32695096 -61.21060047 1.73464558 -34.49560547 0.56005859 C-33.59360413 0.51914093 -32.69160278 0.47822327 -31.76226807 0.43606567 C-21.17737559 0.00076987 -10.59231565 -0.01983294 0 0 Z " fill="#FAFAFA" transform="translate(1395.85498046875,1414.86962890625)"/>
<path d="M0 0 C2.16219197 -0.00083023 4.32438386 -0.0032954 6.48657227 -0.00730896 C11.01223825 -0.01016049 15.53740766 0.00446171 20.06298828 0.03198242 C25.81419901 0.06589943 31.56451301 0.0600951 37.31576538 0.04131985 C41.78244248 0.03065379 46.24891773 0.03977673 50.71557617 0.05470467 C52.83308306 0.0598279 54.95061158 0.05947735 57.06811523 0.05315971 C87.00665483 -0.00259896 113.12019103 7.83055303 136 27.62890625 C136.80695313 28.29148437 137.61390625 28.9540625 138.4453125 29.63671875 C161.48773991 49.21194705 175.51952878 79.25360146 178.22836304 109.14919662 C178.57384697 115.05082751 178.56232533 120.94980026 178.53125 126.859375 C178.53395577 128.71495262 178.5378471 130.57052883 178.54284668 132.42610168 C178.5486747 136.27061781 178.54038817 140.11475691 178.52148438 143.95922852 C178.49851998 148.86581684 178.51196989 153.77153798 178.53577423 158.67809582 C178.55026414 162.49156683 178.54561464 166.30483359 178.53526306 170.11831093 C178.53261377 171.92787088 178.53580151 173.73744995 178.54518127 175.54698753 C178.61777659 193.45240104 178.61777659 193.45240104 174 200.62890625 C173.46375 201.53640625 172.9275 202.44390625 172.375 203.37890625 C166.77833317 208.68101167 159.67183 211.62890625 152 211.62890625 C145.0203951 210.4544535 138.89637238 207.8299418 134 202.62890625 C128.7865058 194.76975827 127.85102963 187.11799931 127.8581543 177.8203125 C127.85467987 177.07285263 127.85120544 176.32539276 127.84762573 175.55528259 C127.84031367 173.94246145 127.83494426 172.32963055 127.83133507 170.71679688 C127.82410111 168.1496594 127.80838139 165.58270562 127.78999329 163.015625 C127.73786603 155.71991589 127.68965241 148.42430908 127.67407227 141.12841797 C127.66389261 136.65268537 127.63431948 132.17742021 127.59275246 127.70187378 C127.58057805 126.01174483 127.5752959 124.32154947 127.57755089 122.63137817 C127.59802205 102.27020116 122.93403159 84.33121897 108.08203125 69.421875 C91.88269008 54.1763611 72.24398422 50.33131523 50.76591492 50.38507652 C47.85539997 50.39072366 44.94527558 50.38142429 42.03479004 50.36787415 C33.76650101 50.33096467 25.49834984 50.31220285 17.22998047 50.32348633 C12.15429251 50.32936 7.07916039 50.31097491 2.00358582 50.27759743 C0.08043472 50.26968468 -1.84277763 50.27086392 -3.76591492 50.28162193 C-24.77331181 50.39413179 -24.77331181 50.39413179 -32.88000488 42.88822937 C-37.76223281 37.76517127 -40.14045508 32.27661733 -40.375 25.19140625 C-40.15640936 18.25352946 -38.46218412 12.17625655 -33.57788086 7.00071716 C-23.88047444 -1.43021593 -12.08762404 -0.08421435 0 0 Z " fill="#FAFAFA" transform="translate(619,1415.37109375)"/>
<path d="M0 0 C0.66 0.33 1.32 0.66 2 1 C-6.25 9.25 -14.5 17.5 -23 26 C-23 22.38462432 -22.4082652 21.99712389 -20 19.453125 C-19.03900391 18.4321875 -19.03900391 18.4321875 -18.05859375 17.390625 C-17.37925781 16.68421875 -16.69992187 15.9778125 -16 15.25 C-15.35160156 14.5590625 -14.70320313 13.868125 -14.03515625 13.15625 C-9.59359484 8.47721897 -4.92653029 4.16331117 0 0 Z " fill="#BEBEBE" transform="translate(1104,270)"/>
<path d="M0 0 C0.66 0.33 1.32 0.66 2 1 C-3.94 6.94 -9.88 12.88 -16 19 C-16.66 18.67 -17.32 18.34 -18 18 C-6.66287016 5.33029613 -6.66287016 5.33029613 0 0 Z " fill="#C1C1C0" transform="translate(1318,681)"/>
<path d="M0 0 C0.66 0.33 1.32 0.66 2 1 C-3.94 6.94 -9.88 12.88 -16 19 C-16 13.77719767 -11.50919035 10.58625028 -8 7 C-5.39703481 4.58610154 -2.73530762 2.26244859 0 0 Z " fill="#C5C5C5" transform="translate(487,824)"/>
<path d="M0 0 C0.66 0.33 1.32 0.66 2 1 C-1.3 4.3 -4.6 7.6 -8 11 C-8 7.0234755 -6.61988497 5.9109833 -4 3 C-1.75 1.1875 -1.75 1.1875 0 0 Z " fill="#BDBDBD" transform="translate(771,1049)"/>
<path d="M0 0 C0.66 0.33 1.32 0.66 2 1 C-0.97 3.97 -3.94 6.94 -7 10 C-7 6.04435836 -5.59478606 4.89133304 -3 2 C-2.01 1.34 -1.02 0.68 0 0 Z " fill="#BABBBB" transform="translate(590,1419)"/>
<path d="M0 0 C0.66 0.33 1.32 0.66 2 1 C-0.97 3.97 -3.94 6.94 -7 10 C-7 6.04435836 -5.59478606 4.89133304 -3 2 C-2.01 1.34 -1.02 0.68 0 0 Z " fill="#BEBEBD" transform="translate(1445,1261)"/>
<path d="M0 0 C0.66 0.33 1.32 0.66 2 1 C-0.31 3.31 -2.62 5.62 -5 8 C-5.66 7.67 -6.32 7.34 -7 7 C-4.66666667 4.66666667 -2.33333333 2.33333333 0 0 Z " fill="#C2C3C3" transform="translate(398,1101)"/>
</svg>
